<?xml version="1.0" encoding="UTF-8" standalone="no"?><!DOCTYPE svg PUBLIC "-//W3C//DTD SVG 1.1//EN" "http://www.w3.org/Graphics/SVG/1.1/DTD/svg11.dtd"><svg width="100%" height="100%" viewBox="0 0 3508 4961" version="1.1" xmlns="http://www.w3.org/2000/svg" xmlns:xlink="http://www.w3.org/1999/xlink" xml:space="preserve" xmlns:serif="http://www.serif.com/" style="fill-rule:evenodd;clip-rule:evenodd;stroke-linecap:round;stroke-linejoin:round;stroke-miterlimit:1.5;"><path d="M2885.766,3018.211c-974.162,332.09 -1155.47,317.096 -1062.195,32.803c93.275,-284.292 200.99,-715.821 452.183,-546.401c251.193,169.42 1584.174,181.507 610.012,513.598Z" style="fill:#5aa255;stroke:#000;stroke-width:1px;"/><path id="bell-2" d="M1590.008,748.839c-248.68,-27.223 -213.597,232.449 -229.158,281.641c-15.561,49.192 251.787,141.628 251.787,141.628l208.695,-175.976c0,0 17.356,-220.07 -231.324,-247.293Z" style="fill:#f2e960;stroke:#000;stroke-width:1px;"/><path d="M1812.122,2261.523c-139.084,-338.047 -154.538,-469.652 -231.806,-492.877c-77.269,-23.225 -83.892,539.326 -83.892,539.326c0,0 454.782,291.597 315.698,-46.449Z" style="fill:#5aa255;stroke:#000;stroke-width:1px;"/><path id="stem" d="M1436.86,4526.769c392.967,-1574.11 573.997,-1952.176 679.965,-2471.493c41.397,-202.873 163.006,-777.324 164.006,-936.64c1.56,-248.503 -720.341,-509.078 -720.341,-509.078c-21.346,7.723 -178.022,39.517 -278.671,107.386c-21.709,14.639 -270.801,270.19 -221.124,267.346c67.716,-3.877 481.575,-261.031 561.106,-227.405c144.721,61.19 273.242,143.336 339.341,232.769c111.29,150.578 91.212,273.603 83.321,309.64c-196.898,899.244 -954.375,4616.538 -607.604,3227.474Z" style="fill:#5aa255;stroke:#000;stroke-width:1px;"/><path id="bell-1" d="M1108.23,961.471c-248.68,-27.223 -213.597,232.449 -229.158,281.641c-15.561,49.192 251.787,141.628 251.787,141.628l208.695,-175.976c0,0 17.356,-220.07 -231.324,-247.293Z" style="fill:#f2e960;stroke:#000;stroke-width:1px;"/><path id="bell-3" d="M1983.749,1124.483c-248.68,-27.223 -213.597,232.449 -229.158,281.641c-15.561,49.192 251.787,141.628 251.787,141.628l208.695,-175.976c0,0 17.356,-220.07 -231.324,-247.293Z" style="fill:#f2e960;stroke:#000;stroke-width:1px;"/><path d="M1376.58,2936.713c348.683,708.652 236.413,978.991 -82.711,939.627c-319.124,-39.364 -941.73,-634.65 -714.641,-729.661c227.089,-95.011 448.669,-918.618 797.352,-209.966Z" style="fill:#5aa255;stroke:#000;stroke-width:1px;"/></svg>