<?xml version="1.0" encoding="UTF-8" standalone="no"?>
<!DOCTYPE svg PUBLIC "-//W3C//DTD SVG 1.1//EN" "http://www.w3.org/Graphics/SVG/1.1/DTD/svg11.dtd">
<svg width="100%" height="100%" viewBox="0 0 2847 1898" version="1.1" xmlns="http://www.w3.org/2000/svg" xmlns:xlink="http://www.w3.org/1999/xlink" xml:space="preserve" xmlns:serif="http://www.serif.com/" style="fill-rule:evenodd;clip-rule:evenodd;stroke-linejoin:round;stroke-miterlimit:2;">
    <g transform="matrix(1,0,0,1,-534.306395,-2651.85444)">
        <g id="grass" transform="matrix(0.699844,0,0,0.823037,490.69111,457.842811)">
            <path d="M1992.863,4470.266L1998.889,4471.548C1992.143,4471.029 1617.375,4971.366 1617.375,4971.366L62.321,4867.45C62.321,4867.45 101.211,4460.181 145.169,4339.512C382.999,3686.641 1117.366,3083.443 1224.462,2995.476C1065.233,3140.05 1067.447,3198.694 965.843,3370.392C1419.766,3059.683 1522.105,2914.676 2112.565,2669.776C1578.015,2936.296 1514.297,3091.211 1502.394,3099.566C1875.259,2957.588 2281.183,2701.523 2586.121,2665.75C2067.703,2923.71 1906.688,3006.21 1769.939,3186.846C1855.315,3126.836 1918.678,3086.141 1945.61,3068.844C1770.626,3193.89 1765.995,3252.392 1645.085,3411.089C2132.106,3155.361 2250.637,3023.26 2865.602,2848.795C2303.649,3051.244 2222.323,3197.684 2209.527,3204.596C2596.39,3107.01 3029.375,2899.965 3336.404,2899.95C2661.166,3142.602 2562.332,3181.596 2349.778,3460.105C2345.545,3465.651 2341.366,3471.153 2337.237,3476.612C2530.605,3375.211 2682.649,3311.191 2730.351,3291.105C2536.512,3384.283 2521.914,3441.124 2375.576,3576.729C2899.244,3408.33 3038.677,3298.518 3674.454,3232.125C3086.103,3335.181 2980.863,3465.5 2967.072,3470.115C3364.94,3440.334 3827.022,3310.627 4129.503,3363.278C3422.65,3486.509 3318.593,3507.973 3061.417,3745.894C2665.336,4112.321 2628.559,4272.391 1992.863,4470.266Z" style="fill:rgb(40,59,38);"/>
        </g>
    </g>
</svg>
